<?xml version="1.0" encoding="utf-8"?>
<svg height="0.5em" viewBox="0 0 1021.2 71.6" xmlns="http://www.w3.org/2000/svg">
  <defs/>
  <path fill="#5e5e5e" d="M 808.7 70.7 L 773 70.7 L 773 61.1 L 782.4 61.1 L 782.4 10.3 L 773 10.3 L 773 0.7 L 808.5 0.7 C 812.7 0.7 816.367 1.417 819.5 2.85 C 821.279 3.647 822.919 4.723 824.359 6.038 C 825.3 6.908 826.136 7.885 826.85 8.95 C 828.617 11.583 829.5 14.7 829.5 18.3 L 829.5 19.3 C 829.506 20.423 829.421 21.544 829.248 22.653 C 829.055 23.848 828.75 24.937 828.335 25.922 C 828.151 26.361 827.939 26.788 827.7 27.2 C 826.5 29.267 825.05 30.867 823.35 32 C 821.65 33.133 820.033 33.933 818.5 34.4 L 818.5 36 C 819.213 36.189 819.908 36.438 820.579 36.745 C 821.255 37.049 821.951 37.418 822.666 37.853 C 822.93 38.014 823.192 38.179 823.45 38.35 C 825.217 39.517 826.717 41.133 827.95 43.2 C 828.97 44.909 829.568 47.052 829.745 49.627 C 829.782 50.184 829.8 50.742 829.8 51.3 L 829.8 52.3 C 829.811 53.925 829.631 55.546 829.265 57.129 C 828.846 58.933 828.113 60.65 827.1 62.2 C 825.3 64.933 822.817 67.033 819.65 68.5 C 817.599 69.436 815.423 70.071 813.19 70.384 C 811.703 70.598 810.202 70.704 808.7 70.7 M 32.3 70.7 L 22.3 70.7 L 22.3 18.9 L 23 14.5 L 21.5 14 L 19.1 17.7 L 6.6 30.3 L 0 23.7 L 23.7 0 L 30.9 0 L 54.6 23.7 L 48 30.3 L 35.5 17.7 L 33.1 14 L 31.6 14.5 L 32.3 18.9 L 32.3 70.7 Z M 119.8 70.7 L 109.8 70.7 L 109.8 18.9 L 110.5 14.5 L 109 14 L 106.6 17.7 L 94.1 30.3 L 87.5 23.7 L 111.2 0 L 118.4 0 L 142.1 23.7 L 135.5 30.3 L 123 17.7 L 120.6 14 L 119.1 14.5 L 119.8 18.9 L 119.8 70.7 Z M 205.9 71.4 L 198.7 71.4 L 175 47.7 L 181.6 41.1 L 194.1 53.7 L 196.5 57.4 L 198 56.9 L 197.3 52.5 L 197.3 0.7 L 207.3 0.7 L 207.3 52.5 L 206.6 56.9 L 208.1 57.4 L 210.5 53.7 L 223 41.1 L 229.6 47.7 L 205.9 71.4 Z M 293.4 71.4 L 286.2 71.4 L 262.5 47.7 L 269.1 41.1 L 281.6 53.7 L 284 57.4 L 285.5 56.9 L 284.8 52.5 L 284.8 0.7 L 294.8 0.7 L 294.8 52.5 L 294.1 56.9 L 295.6 57.4 L 298 53.7 L 310.5 41.1 L 317.1 47.7 L 293.4 71.4 Z M 378.02 57.661 L 371.42 64.161 L 348.22 41.061 L 348.22 34.261 L 371.42 11.061 L 378.02 17.661 L 365.82 29.761 L 362.12 32.161 L 362.62 33.661 L 367.02 32.961 L 418.82 32.961 L 418.82 42.361 L 367.02 42.361 L 362.62 41.661 L 362.12 43.161 L 365.82 45.561 L 378.02 57.661 Z M 525.54 40.441 L 502.34 63.541 L 495.74 57.041 L 507.94 44.941 L 511.64 42.541 L 511.14 41.041 L 506.74 41.741 L 454.94 41.741 L 454.94 32.341 L 506.74 32.341 L 511.14 33.041 L 511.64 31.541 L 507.94 29.141 L 495.74 17.041 L 502.34 10.441 L 525.54 33.641 L 525.54 40.441 Z M 591.5 57.041 L 584.9 63.541 L 561.7 40.441 L 561.7 33.641 L 584.9 10.441 L 591.5 17.041 L 579.3 29.141 L 575.6 31.541 L 576.1 33.041 L 580.5 32.341 L 632.3 32.341 L 632.3 41.741 L 580.5 41.741 L 576.1 41.041 L 575.6 42.541 L 579.3 44.941 L 591.5 57.041 Z M 738.4 40.441 L 715.2 63.541 L 708.6 57.041 L 720.8 44.941 L 724.5 42.541 L 724 41.041 L 719.6 41.741 L 667.8 41.741 L 667.8 32.341 L 719.6 32.341 L 724 33.041 L 724.5 31.541 L 720.8 29.141 L 708.6 17.041 L 715.2 10.441 L 738.4 33.641 L 738.4 40.441 Z M 872.1 70.7 L 860.9 70.7 L 880.9 0.7 L 899.9 0.7 L 919.8 70.7 L 908.7 70.7 L 904.1 54.2 L 876.7 54.2 L 872.1 70.7 Z M 889.6 7.4 L 879.4 44.2 L 901.4 44.2 L 891.2 7.4 L 889.6 7.4 Z M 793.3 40.4 L 793.3 60.9 L 807.4 60.9 C 808.548 60.908 809.694 60.806 810.823 60.596 C 812.144 60.342 813.323 59.928 814.361 59.354 C 814.907 59.053 815.422 58.7 815.9 58.3 C 817.967 56.567 819 54.167 819 51.1 L 819 50.2 C 819.011 49.15 818.872 48.103 818.589 47.092 C 818.138 45.495 817.219 44.069 815.95 43 C 813.917 41.267 811.067 40.4 807.4 40.4 L 793.3 40.4 Z M 793.3 10.5 L 793.3 30.5 L 807.4 30.5 C 808.544 30.508 809.686 30.398 810.807 30.171 C 812.298 29.859 813.616 29.325 814.759 28.57 C 815.05 28.378 815.331 28.171 815.6 27.95 C 817.441 26.454 818.557 24.244 818.668 21.875 C 818.689 21.584 818.7 21.292 818.7 21 L 818.7 20 C 818.7 17.067 817.683 14.75 815.65 13.05 C 814.486 12.095 813.128 11.403 811.671 11.024 C 810.394 10.675 808.971 10.5 807.4 10.5 L 793.3 10.5 Z M 980.4 58.301 L 973.8 64.801 L 950.6 41.701 L 950.6 34.901 L 973.8 11.701 L 980.4 18.301 L 968.2 30.401 L 964.5 32.801 L 965 34.301 L 969.4 33.601 L 1011.8 33.601 L 1011.8 11.701 L 1021.2 11.701 L 1021.2 43.001 L 969.4 43.001 L 965 42.301 L 964.5 43.801 L 968.2 46.201 L 980.4 58.301 Z" data-darkreader-inline-fill="" style="--darkreader-inline-fill: rgba(24, 26, 27, 0.27);"/>
</svg>